<svg xmlns="http://www.w3.org/2000/svg" fill="none" width="20" height="20" viewBox="0 0 20 20">
  <path fill="currentColor" fill-rule="evenodd" d="M5.556 7.05a2.025 2.025 0 1 0 0-4.05 2.025 2.025 0 0 0 0 4.05Zm0-1.013a1.012 1.012 0 1 0 0-2.025 1.012 1.012 0 0 0 0 2.025Z" clip-rule="evenodd"/>
  <path fill="currentColor" d="M7.21 9.785 4.326 8.569l2.886 1.217v-.001Zm0 0 .088.037-.087-.132v.095Z"/>
  <path fill="currentColor" fill-rule="evenodd" d="M2.934 8.057c.285-.216.765-.5 1.391-.5h2.53c.69 0 1.205.363 1.455.565.294.238.548.523.744.767.314.388.603.828.768 1.077l.003.006.093.14c.105.155.178.322.22.493a1.47 1.47 0 0 1 .235-.564c.05-.072.11-.163.18-.268l.006-.01c.193-.289.453-.679.71-.998.181-.228.42-.495.71-.716.274-.21.743-.493 1.355-.493h2.445c.675 0 1.176.36 1.417.557.285.232.53.51.72.749.302.379.582.808.74 1.052l.002.003.002.002.003.005.087.133a1.476 1.476 0 0 1-1.298 2.295c.146.528.286 1.008.387 1.346a.968.968 0 0 1-.725 1.228c-1.827.382-3.12.37-5.085-.005a.972.972 0 0 1-.742-1.244c.105-.336.247-.806.393-1.326a1.47 1.47 0 0 1-1.524-1.116 1.513 1.513 0 0 1-.641.987 1.517 1.517 0 0 1-1.271.203l.003.026.338 3.037a1.518 1.518 0 0 1-3.008.418l-.02-.124-.021.124a1.519 1.519 0 0 1-3.008-.418l.262-2.356.025-.677a1.518 1.518 0 0 1-1.542-2.358c.05-.072.11-.16.179-.264l.014-.02c.198-.297.467-.697.733-1.023.19-.233.437-.506.735-.733Zm1.392.512c-.313 0-.58.143-.78.295-.206.156-.394.36-.561.564-.232.286-.475.647-.68.95l-.007.01-.194.288a.507.507 0 1 0 .83.578l.99-1.422-.123 3.374-.266 2.394a.506.506 0 0 0 1.002.14l.503-3.02.52-.115.514.121.502 3.013a.506.506 0 0 0 1.003-.14l-.338-3.037a.512.512 0 0 0-.014-.072l-.016-.064v-2.64l.088.037.84 1.27.104.156a.506.506 0 1 0 .838-.568l-.098-.148-1.684-.71v-.001l1.683.71-.002-.003a13.222 13.222 0 0 0-.713-1.005 4.156 4.156 0 0 0-.592-.614c-.2-.161-.485-.341-.82-.341H4.326Zm8.244.251c.195-.149.456-.292.765-.292h2.444c.33 0 .61.18.803.337.208.17.404.389.574.603.272.34.53.735.69.982l.002.002.096.146a.504.504 0 0 1-.835.564.486.486 0 0 0-.874.391c.232.92.507 1.865.673 2.423-1.683.351-2.843.343-4.693-.01.255-.815.488-1.636.697-2.464a.486.486 0 0 0-.872-.39l-.037.053a.503.503 0 0 1-.829-.572c.055-.08.12-.178.188-.28l.002-.003c.198-.299.436-.655.662-.936.161-.2.344-.4.544-.554Zm2.099-1.77a2.025 2.025 0 1 0 0-4.05 2.025 2.025 0 0 0 0 4.05Zm0-1.013a1.012 1.012 0 1 0 0-2.024 1.012 1.012 0 0 0 0 2.024Z" clip-rule="evenodd"/>
  <path fill="currentColor" d="M13.049 17.168a.759.759 0 0 1-.658-.752v-.626a18.36 18.36 0 0 0 1.679.139l-.188.687a.759.759 0 0 1-.833.552m2.406-.552-.188-.69a19.09 19.09 0 0 0 1.68-.143v.633a.76.76 0 0 1-1.492.2Z"/>
</svg>
