<svg xmlns="http://www.w3.org/2000/svg" width="20" height="20" fill="none" viewBox="0 0 20 20">
  <path stroke="currentColor" stroke-linecap="round" stroke-linejoin="round" stroke-width="1.3" d="M14.625 1.875H5.379c-.69 0-1.25.56-1.25 1.25v12.742c0 .69.56 1.25 1.25 1.25h9.246c.69 0 1.25-.56 1.25-1.25V3.125c0-.69-.56-1.25-1.25-1.25Z"/>
  <path stroke="currentColor" stroke-linecap="round" stroke-linejoin="round" stroke-width="1.3" d="M4.13 8.204h11.74m-9.424-1.6V4.08m0 8.071V9.625m-1.18 7.492v.437a.57.57 0 0 0 .567.571h1.03a.57.57 0 0 0 .57-.57v-.438m5.13 0v.437a.57.57 0 0 0 .57.571h1.034a.57.57 0 0 0 .57-.57v-.438"/>
</svg>
