<svg xmlns="http://www.w3.org/2000/svg" fill="none" width="20" height="20" viewBox="0 0 20 20">
  <path fill="currentColor" d="M15.67 8.745c-.23-.284-.51-.53-.77-.775-.67-.566-1.43-.973-2.07-1.568-1.49-1.379-1.82-3.655-.87-5.402-.95.217-1.78.708-2.489 1.247-2.59 1.964-3.61 5.43-2.39 8.405.04.095.08.19.08.312 0 .208-.15.397-.35.472-.23.095-.47.038-.66-.113a.556.556 0 0 1-.14-.16c-1.13-1.351-1.31-3.287-.55-4.836-1.669 1.284-2.579 3.457-2.449 5.506.06.472.12.945.29 1.417.14.566.41 1.133.71 1.634 1.08 1.634 2.95 2.805 4.96 3.04 2.139.256 4.428-.112 6.068-1.51 1.83-1.568 2.47-4.08 1.53-6.234l-.13-.245c-.21-.435-.77-1.19-.77-1.19Zm-3.16 5.95c-.28.226-.74.472-1.1.566-1.12.378-2.239-.15-2.899-.774 1.19-.264 1.9-1.095 2.11-1.936.17-.756-.15-1.379-.28-2.106-.12-.7-.1-1.294.17-1.946.19.359.39.718.63 1.001.77.945 1.98 1.36 2.24 2.645.04.132.06.264.06.406.03.774-.33 1.624-.93 2.144Z"/>
</svg>
