<svg width="20" height="20" viewBox="0 0 20 20" fill="none" xmlns="http://www.w3.org/2000/svg">
<g id="solar:radio-linear">
<g id="Group">
<path id="Vector" d="M1.6665 11.6667C1.6665 8.52417 1.6665 6.9525 2.64317 5.97667C3.619 5 5.19067 5 8.33317 5H11.6665C14.809 5 16.3807 5 17.3565 5.97667C18.3332 6.9525 18.3332 8.52417 18.3332 11.6667C18.3332 14.8092 18.3332 16.3808 17.3565 17.3567C16.3807 18.3333 14.809 18.3333 11.6665 18.3333H8.33317C5.19067 18.3333 3.619 18.3333 2.64317 17.3567C1.6665 16.3808 1.6665 14.8092 1.6665 11.6667Z" stroke="#101828" stroke-width="1.3"/>
<path id="Vector_2" d="M4.1665 9.16667C4.1665 8.72464 4.3421 8.30072 4.65466 7.98816C4.96722 7.6756 5.39114 7.5 5.83317 7.5H14.1665C14.6085 7.5 15.0325 7.6756 15.345 7.98816C15.6576 8.30072 15.8332 8.72464 15.8332 9.16667C15.8332 9.60869 15.6576 10.0326 15.345 10.3452C15.0325 10.6577 14.6085 10.8333 14.1665 10.8333H5.83317C5.39114 10.8333 4.96722 10.6577 4.65466 10.3452C4.3421 10.0326 4.1665 9.60869 4.1665 9.16667ZM7.49984 14.1667C7.49984 14.4982 7.36814 14.8161 7.13372 15.0505C6.8993 15.285 6.58136 15.4167 6.24984 15.4167C5.91832 15.4167 5.60037 15.285 5.36595 15.0505C5.13153 14.8161 4.99984 14.4982 4.99984 14.1667C4.99984 13.8351 5.13153 13.5172 5.36595 13.2828C5.60037 13.0484 5.91832 12.9167 6.24984 12.9167C6.58136 12.9167 6.8993 13.0484 7.13372 13.2828C7.36814 13.5172 7.49984 13.8351 7.49984 14.1667Z" stroke="#101828" stroke-width="1.3"/>
<path id="Vector_3" d="M12.4998 9.58332V10.8333M10.8332 14.1667H14.9998M5.4165 4.99999L12.4998 1.66666" stroke="#101828" stroke-width="1.3" stroke-linecap="round"/>
</g>
</g>
</svg>
