<svg xmlns="http://www.w3.org/2000/svg" width="20" height="20" fill="none" viewBox="0 0 20 20">
  <g clip-path="url(#a)">
    <path fill="currentColor" d="M18.125 10.938h-15V3.905a2.002 2.002 0 0 1 .59-1.425l.016-.016a2.02 2.02 0 0 1 2.289-.397 3.09 3.09 0 0 0 .46 3.775l.428.428-.787.787.883.884.788-.787 4.363-4.363.787-.788-.884-.883-.787.787-.428-.428A3.09 3.09 0 0 0 6.9 1.13a3.266 3.266 0 0 0-4.053.451l-.015.016a3.244 3.244 0 0 0-.957 2.31v7.03H.625v1.25h1.25v1.2c0 .1.016.2.048.296l1.163 3.489a.937.937 0 0 0 .89.64h.503l-.456 1.563h1.303l.455-1.563h8.13l.468 1.563h1.305l-.47-1.563h.81a.936.936 0 0 0 .89-.64l1.163-3.489a.937.937 0 0 0 .048-.296v-1.2h1.25v-1.25h-1.25ZM7.365 2.364a1.837 1.837 0 0 1 2.594 0l.428.428-2.595 2.595-.428-.428a1.837 1.837 0 0 1 0-2.595Zm9.51 10.972L15.8 16.562H4.2l-1.075-3.226v-1.149h13.75v1.149Z"/>
  </g>
  <defs>
    <clipPath id="a">
      <path fill="currentColor" d="M0 0h20v20H0z"/>
    </clipPath>
  </defs>
</svg>
