<svg xmlns="http://www.w3.org/2000/svg" width="20" height="20" fill="none" viewBox="0 0 20 20">
  <path stroke="currentColor" stroke-linecap="round" stroke-linejoin="round" stroke-width="1.4" d="M18.571 3.571H1.43a.714.714 0 0 0-.715.715v11.428a.714.714 0 0 0 .715.715H18.57a.714.714 0 0 0 .715-.715V4.286a.715.715 0 0 0-.715-.715Z"/>
  <path stroke="currentColor" stroke-linecap="round" stroke-linejoin="round" stroke-width="1.4" d="M15.714 7.143h.715M15.714 10h.715m-4.286-3.571H4.286a.714.714 0 0 0-.715.714v5.714a.715.715 0 0 0 .715.714h7.857a.714.714 0 0 0 .714-.714V7.143a.714.714 0 0 0-.714-.714Z"/>
</svg>
