<svg xmlns="http://www.w3.org/2000/svg" fill="none" viewBox="0 0 20 20">
  <path fill="currentColor" d="m16.475 6.025.008-.008-3.1-3.1-.883.883 1.758 1.758a2.077 2.077 0 0 0-.731 3.415 2.083 2.083 0 0 0 2.306.435v6.009a.833.833 0 0 1-1.666 0v-3.75A1.667 1.667 0 0 0 12.5 10h-.833V4.167A1.667 1.667 0 0 0 10 2.5H5a1.667 1.667 0 0 0-1.667 1.667V17.5h8.334v-6.25h1.25v4.167a2.083 2.083 0 0 0 4.166 0V7.5c0-.575-.233-1.1-.608-1.475ZM10 11.25v4.583H5V10h5v1.25Zm0-2.917H5V4.167h5v4.166Zm5 0a.833.833 0 1 1 0-1.666.833.833 0 0 1 0 1.666Z"/>
</svg>
