<svg width="20" height="20" viewBox="0 0 20 20" fill="none" xmlns="http://www.w3.org/2000/svg">
<g id="streamline:hotel-air-conditioner" clip-path="url(#clip0_45_422)">
<g id="Group">
<path id="Vector" d="M17.8572 0.714294H2.14293C1.76405 0.714294 1.40068 0.864804 1.13277 1.13271C0.864865 1.40062 0.714355 1.76399 0.714355 2.14287V9.28572C0.714355 9.6646 0.864865 10.028 1.13277 10.2959C1.40068 10.5638 1.76405 10.7143 2.14293 10.7143H17.8572C18.2361 10.7143 18.5995 10.5638 18.8674 10.2959C19.1353 10.028 19.2858 9.6646 19.2858 9.28572V2.14287C19.2858 1.76399 19.1353 1.40062 18.8674 1.13271C18.5995 0.864804 18.2361 0.714294 17.8572 0.714294Z" stroke="#101828" stroke-width="1.5" stroke-linecap="round" stroke-linejoin="round"/>
<path id="Vector_2" d="M15.7141 10.7143V7.85716C15.7141 7.47828 15.5636 7.11492 15.2957 6.84701C15.0278 6.5791 14.6645 6.42859 14.2856 6.42859H5.71415C5.33527 6.42859 4.9719 6.5791 4.70399 6.84701C4.43608 7.11492 4.28557 7.47828 4.28557 7.85716V10.7143M3.57129 17.8572H3.71415C4.24458 17.8572 4.75329 17.6464 5.12836 17.2714C5.50343 16.8963 5.71415 16.3876 5.71415 15.8572V14.2857M16.4284 17.8572H16.2856C15.7551 17.8572 15.2464 17.6464 14.8714 17.2714C14.4963 16.8963 14.2856 16.3876 14.2856 15.8572V14.2857M9.99986 19.2857V14.2857" stroke="#101828" stroke-width="1.5" stroke-linecap="round" stroke-linejoin="round"/>
</g>
</g>
<defs>
<clipPath id="clip0_45_422">
<rect width="20" height="20" fill="white"/>
</clipPath>
</defs>
</svg>
