<svg xmlns="http://www.w3.org/2000/svg" width="20" height="20" fill="none" viewBox="0 0 20 20">
  <path fill="currentColor" d="M15 2.5c1.212 0 2.043 1.03 2.525 2.07.476 1.034.765 2.382.804 3.842l.004.338v7.917a.832.832 0 0 1-.866.833l-.104-.012L15 17.095l-2.363.393a.833.833 0 0 1-.302-.005l-.098-.026L10 16.712l-2.237.745a.833.833 0 0 1-1.09-.691l-.006-.1v-2.439C6.224 14.686 5.67 15 5 15c-1.212 0-2.043-1.03-2.525-2.07-.512-1.113-.808-2.592-.808-4.18 0-1.588.295-3.067.808-4.18.46-.994 1.238-1.977 2.362-2.063L5 2.5h10Zm0 1.667H7.318c.075.133.144.268.206.404.513 1.112.81 2.59.81 4.179v6.76l1.403-.467a.834.834 0 0 1 .526 0l2.305.768 2.295-.383a.836.836 0 0 1 .274 0l1.53.255V8.75c0-1.403-.265-2.633-.656-3.48-.423-.92-.842-1.103-1.011-1.103Zm-10 0c-.17 0-.588.183-1.01 1.102-.393.848-.657 2.078-.657 3.481s.264 2.633.656 3.48c.423.92.842 1.103 1.011 1.103.17 0 .587-.183 1.01-1.102.392-.848.657-2.078.657-3.481s-.265-2.633-.656-3.48C5.587 4.35 5.169 4.166 5 4.166Zm0 2.916c.46 0 .833.746.833 1.667 0 .92-.373 1.667-.833 1.667-.46 0-.833-.746-.833-1.667 0-.92.373-1.667.833-1.667Z"/>
</svg>
